<?xml version="1.0" encoding="UTF-8"?>
<svg id="Calque_1" xmlns="http://www.w3.org/2000/svg" version="1.1" viewBox="0 0 500 500">
  <!-- Generator: Adobe Illustrator 30.3.0, SVG Export Plug-In . SVG Version: 2.1.3 Build 182)  -->
  <defs>
    <style>
      .st0 {
        fill: #ff2116;
      }

      .st1 {
        fill: #2c2c2c;
      }

      .st2 {
        fill: #4d4d4d;
      }

      .st3, .st4 {
        fill: #0086bf;
      }

      .st5 {
        fill: #f5f5f5;
      }

      .st6 {
        fill: #c6c6c6;
      }

      .st7 {
        fill: none;
        stroke: #000;
        stroke-miterlimit: 10;
        stroke-width: 3px;
      }

      .st4 {
        font-family: MicrosoftYaHei-Bold, 'Microsoft YaHei';
        font-size: 93.16px;
        font-weight: 700;
      }
    </style>
  </defs>
  <g>
    <path class="st0" d="M-523.71,277.56c-3.68-8.24-9.67-13.98-9.67-13.98-.01-.02-.03-.04-.04-.06l-71.21-69.85s-.08-.08-.12-.12c0,0-6.08-5.79-15.09-9.66-10.61-4.55-21.55-4.07-21.55-4.07l.16-.02h-71.69v16.06h71.69c.05,0,.11,0,.16,0,0,0,8.61.08,14.9,2.78,6.06,2.6,10.35,6.54,10.38,6.56,0,0,.03.03.03.03l71.03,69.69s4.28,4.52,6.35,9.17c1.67,3.75,1.78,10.62,1.78,10.62,0,.11-.01.23-.02.34v308.99c0,18.32-14.49,32.82-32.81,32.82h-143.51v16.05h143.51c26.94,0,48.86-21.94,48.86-48.88v-308.65s.77-9.04-3.15-17.83Z"/>
    <path class="st5" d="M-646.72,410.45c7.79,2.39,12.3,2.13,15.72-.31h0c6.07-4.25,5.19-12.83-1.67-16.28-5.34-2.69-9.65-3.24-23.53-3.04-8.53.58-22.25,2.3-24.57,2.82,0,0,7.54,5.21,10.88,7.12,4.45,2.54,15.28,7.27,23.18,9.68Z"/>
    <path class="st5" d="M-704.55,568.26c3.15-4.85,4.72-11.3,4.72-19.37,0-14.41-4.37-22.97-13.11-25.69v51.32c3.57-1.11,6.37-3.19,8.38-6.26Z"/>
    <path class="st5" d="M-689.82,390.45l-5.88-7.2c-3.68-3.86-9.93-11.93-13.89-17.92-1.27-1.67-2.39-3.21-3.35-4.6v34.71c8.38-2.09,23.11-4.99,23.11-4.99Z"/>
    <path class="st5" d="M-708.42,280.94c4.83,9.64,4.34,27.11-1.39,49.14l-3.12,12.01v8.72l2.56,4.35c2.28,3.86,8.92,13.03,14.77,20.38l10.99,13.67,13.68-1.78c43.44-5.67,58.33,3.97,58.33,17.78,0,17.44-34.11,18.87-62.76-1.25-6.45-4.53-10.87-9.02-10.87-9.02,0,0-17.82,3.63-26.69,6.01v112.21c4.49.63,8.3,1.85,11.41,3.69,4.74,2.79,8.31,6.95,10.72,12.47,2.44,5.52,3.66,11.64,3.66,18.36,0,7.07-1.1,13.39-3.29,18.94-2.16,5.52-5.48,9.98-9.98,13.37-3.19,2.43-7.38,3.98-12.52,4.67v52.22h143.51c18.32,0,32.81-14.5,32.81-32.82v-308.99c0-.11,0-.23.02-.34,0,0-.1-6.87-1.78-10.62-2.07-4.65-6.35-9.17-6.35-9.17l-71.03-69.69s-.03-.03-.03-.03c-.03-.03-4.32-3.96-10.38-6.56-6.29-2.7-14.9-2.78-14.9-2.78-.05,0-.11,0-.16,0h-71.69v79.17c1.76,1.54,3.31,3.51,4.51,5.9ZM-635.41,522.25h-28.23v21.65h22.6v9.6h-22.6v31.57h-11.99v-72.43h40.22v9.6Z"/>
    <path class="st0" d="M-675.37,403.96c28.65,20.12,62.76,18.68,62.76,1.25,0-13.82-14.88-23.45-58.33-17.78l-13.68,1.78-10.99-13.67c-5.85-7.35-12.49-16.52-14.77-20.38l-2.56-4.35v9.92c.96,1.39,2.07,2.93,3.35,4.6,3.96,5.99,10.21,14.06,13.89,17.92l5.88,7.2s-14.73,2.9-23.11,4.99v5.5c8.87-2.38,26.69-6.01,26.69-6.01,0,0,4.43,4.5,10.87,9.02ZM-656.2,390.82c13.88-.2,18.19.35,23.53,3.04,6.87,3.46,7.75,12.03,1.67,16.28h0c-3.42,2.44-7.92,2.7-15.72.31-7.9-2.42-18.72-7.14-23.18-9.68-3.35-1.91-10.88-7.12-10.88-7.12,2.32-.52,16.04-2.24,24.57-2.82Z"/>
    <path class="st0" d="M-709.81,330.08c5.73-22.03,6.22-39.49,1.39-49.14-1.2-2.39-2.75-4.36-4.51-5.9v67.04l3.12-12.01Z"/>
    <path class="st1" d="M-690.43,566.61c2.19-5.55,3.29-11.87,3.29-18.94s-1.22-12.84-3.66-18.36c-2.41-5.52-5.98-9.67-10.72-12.47-3.1-1.84-6.92-3.07-11.41-3.69v10.05c8.74,2.72,13.11,11.28,13.11,25.69,0,8.07-1.57,14.52-4.72,19.37-2.01,3.07-4.81,5.15-8.38,6.26v10.13c5.15-.69,9.33-2.24,12.52-4.67,4.49-3.4,7.82-7.85,9.98-13.37Z"/>
    <polygon class="st1" points="-675.63 585.08 -663.64 585.08 -663.64 553.51 -641.03 553.51 -641.03 543.9 -663.64 543.9 -663.64 522.25 -635.41 522.25 -635.41 512.65 -675.63 512.65 -675.63 585.08"/>
  </g>
  <g>
    <path class="st0" d="M-874.64,637.08c-18.32,0-32.81-14.5-32.81-32.82V228.9c0-18.32,14.49-32.82,32.81-32.82h0s143.51,0,143.51,0v-16.06h-143.51c-26.94,0-48.86,21.94-48.86,48.88v375.36c0,26.93,21.93,48.88,48.86,48.88h143.51v-16.05h-143.51Z"/>
    <path class="st5" d="M-742.91,522.47v53.22h4.99c2.52,0,4.77-.32,6.79-.95v-51.32c-2.03-.63-4.29-.95-6.79-.95h-4.99Z"/>
    <path class="st5" d="M-742.46,373.47l-9.7,23.97-2.81,5.44s14.95-4.9,22.55-6.89c.41-.11.84-.22,1.29-.33v-34.71c-2.95-4.26-4.44-7-4.44-7,0,0-3.79,12.19-6.9,19.52Z"/>
    <polygon class="st5" points="-731.13 351.02 -731.13 342.3 -732.7 348.35 -731.13 351.02"/>
    <path class="st5" d="M-739.63,323.09c1.43-4.86,3.63-15.32,4.88-23.23h0c.94-7.87,1.34-15.72-1.19-19.69-7.01-7.67-15.47-1.27-14.04,16.95.48,6.13,2.01,16.61,4.04,23.07l3.7,11.74,2.61-8.85Z"/>
    <path class="st5" d="M-825.35,456.79c3.31,3.99,7.27,3.66,15.25-1.27h0c6.21-3.84,18.78-18.7,27.48-32.5l3.52-5.59-16.04,8.06c-24.77,12.45-36.1,24.19-30.21,31.29Z"/>
    <path class="st5" d="M-874.64,196.08c-18.32,0-32.81,14.5-32.81,32.82v375.36c0,18.32,14.49,32.82,32.81,32.82h143.51v-52.22c-2.04.27-4.23.43-6.58.43h-17.19v-72.43h16.29c2.68,0,5.17.17,7.48.5v-112.21s-.06.02-.09.02c-9.12,2.46-13.67,4-27.03,8.51,0,0-4.69,6.81-7.74,11.76-11.36,18.41-24.63,33.67-34.11,39.22-10.61,6.22-21.73,6.64-27.33,1.04-11.05-11.05.9-26.23,33.34-42.35l20.41-10.14,7.95-17.4c4.37-9.57,10.9-25.18,14.5-34.69l6.55-17.3-4.52-12.8c-5.55-15.74-7.53-39.39-4.01-47.9,3.85-9.29,14.75-10.31,22.08-3.89v-79.17h-143.51ZM-808.65,512.87h17.93c5.73,0,10.38.55,13.95,1.64,3.57,1.06,6.58,3.45,9.02,7.16,2.44,3.68,3.66,8.12,3.66,13.32,0,4.78-.99,8.88-2.97,12.31-1.98,3.43-4.65,5.91-8.01,7.43-3.33,1.52-8.45,2.28-15.39,2.28h-6.21v28.28h-11.99v-72.43Z"/>
    <path class="st5" d="M-779.73,544.44c2.05-1.98,3.08-5.2,3.08-9.66,0-3.33-.67-6.01-2.02-8.07-1.34-2.09-2.83-3.36-4.46-3.82-1.59-.5-4.12-.74-7.59-.74h-5.94v25.26h5.94c5.31,0,8.97-.99,10.98-2.97Z"/>
    <path class="st0" d="M-732.42,395.99c-7.6,1.99-22.55,6.89-22.55,6.89l2.81-5.44,9.7-23.97c3.11-7.33,6.9-19.52,6.9-19.52,0,0,1.48,2.73,4.44,7v-9.92l-1.57-2.67,1.57-6.05v-67.04c-7.32-6.42-18.23-5.4-22.08,3.89-3.52,8.5-1.54,32.16,4.01,47.9l4.52,12.8-6.55,17.3c-3.6,9.51-10.13,25.12-14.5,34.69l-7.95,17.4-20.41,10.14c-32.43,16.12-44.39,31.3-33.34,42.35,5.6,5.6,16.72,5.18,27.33-1.04,9.48-5.55,22.74-20.81,34.11-39.22,3.05-4.95,7.74-11.76,7.74-11.76,13.36-4.51,17.91-6.05,27.03-8.51.03,0,.06-.02.09-.02v-5.5c-.45.11-.88.22-1.29.33ZM-745.93,320.19c-2.04-6.46-3.56-16.94-4.04-23.07-1.43-18.22,7.03-24.61,14.04-16.95,2.53,3.96,2.13,11.82,1.19,19.69h0c-1.25,7.91-3.45,18.37-4.88,23.23l-2.61,8.85-3.7-11.74ZM-782.62,423.02c-8.7,13.8-21.27,28.66-27.48,32.5h0c-7.98,4.93-11.94,5.26-15.25,1.27-5.89-7.1,5.44-18.84,30.21-31.29l16.04-8.06-3.52,5.59Z"/>
    <path class="st1" d="M-796.66,557.01h6.21c6.93,0,12.06-.76,15.39-2.28,3.36-1.52,6.03-4,8.01-7.43,1.98-3.43,2.97-7.53,2.97-12.31,0-5.2-1.22-9.64-3.66-13.32-2.44-3.71-5.45-6.1-9.02-7.16-3.57-1.1-8.22-1.64-13.95-1.64h-17.93v72.43h11.99v-28.28ZM-796.66,522.15h5.94c3.47,0,6,.25,7.59.74,1.63.46,3.11,1.73,4.46,3.82,1.34,2.05,2.02,4.74,2.02,8.07,0,4.46-1.03,7.68-3.08,9.66-2.02,1.98-5.68,2.97-10.98,2.97h-5.94v-25.26Z"/>
    <path class="st1" d="M-737.92,575.69h-4.99v-53.22h4.99c2.5,0,4.76.32,6.79.95v-10.05c-2.31-.32-4.8-.5-7.48-.5h-16.29v72.43h17.19c2.35,0,4.53-.15,6.58-.43v-10.13c-2.02.63-4.28.95-6.79.95Z"/>
  </g>
  <line class="st7" x1="-722" y1="294.04" x2="-722" y2="820.19"/>
  <path class="st3" d="M439.19,111.2c-3.68-8.24-9.67-13.98-9.67-13.98-.01-.02-.03-.04-.04-.06l-71.21-69.85s-.08-.08-.12-.12c0,0-6.08-5.79-15.09-9.66-10.61-4.55-21.55-4.07-21.55-4.07l.16-.02h-71.69s-143.51,0-143.51,0c-26.94,0-48.86,21.94-48.86,48.88v375.36c0,26.93,21.93,48.88,48.86,48.88h287.03c26.94,0,48.86-21.94,48.86-48.88V129.03s.77-9.04-3.15-17.83ZM426.29,128.69v308.99c0,18.32-14.49,32.82-32.81,32.82H106.46c-18.32,0-32.81-14.5-32.81-32.82V62.32c0-18.32,14.49-32.82,32.81-32.82h0s143.51,0,143.51,0h71.69c.05,0,.11,0,.16,0,0,0,8.61.08,14.9,2.78,6.06,2.6,10.35,6.54,10.38,6.56,0,0,.03.03.03.03l71.03,69.69s4.28,4.52,6.35,9.17c1.67,3.75,1.78,10.62,1.78,10.62,0,.11-.01.23-.02.34Z"/>
  <text class="st4" transform="translate(154.96 417.8)"><tspan x="0" y="0">JPG</tspan></text>
  <path class="st6" d="M311.25,272.97h-56.41c-6.27,0-10.16-6.81-6.97-12.21l28.09-47.62,28.62-48.51c4.54-7.69,15.66-7.69,20.2,0l56.72,96.12c3.18,5.4-.71,12.21-6.97,12.21h-63.27Z"/>
  <path class="st2" d="M240.67,272.97h-111.74c-8.93,0-14.48-9.71-9.94-17.41l81.23-137.67c4.39-7.44,15.15-7.44,19.54,0l56.2,95.26,27.68,46.91c3.37,5.71-.75,12.91-7.37,12.91h-55.59Z"/>
</svg>