<svg xmlns="http://www.w3.org/2000/svg" viewBox="0 0 48 48" width="48" height="48">
  <path fill="#E53935" d="M10,4h28c1.1,0,2,0.9,2,2v36c0,1.1-0.9,2-2,2H10c-1.1,0-2-0.9-2-2V6C8,4.9,8.9,4,10,4z"/>
  <path fill="#ffffff" d="M16.5,29h2c1.4,0,2.5-1.1,2.5-2.5v-3c0-1.4-1.1-2.5-2.5-2.5h-2V29z M18,22.5h0.5c0.6,0,1,0.4,1,1v3 c0,0.6-0.4,1-1,1H18V22.5z"/>
  <path fill="#ffffff" d="M23.5,29h2c1.4,0,2.5-1.1,2.5-2.5v-3c0-1.4-1.1-2.5-2.5-2.5h-2V29z M25,22.5h0.5c0.6,0,1,0.4,1,1v3 c0,0.6-0.4,1-1,1H25V22.5z"/>
  <path fill="#ffffff" d="M30.5,21v8h1.5v-3.5H34v-1.5h-2v-1.5h2.5V21H30.5z"/>
</svg>
