<svg xmlns="http://www.w3.org/2000/svg" viewBox="0 0 48 48" width="48" height="48">
  <path fill="#2B579A" d="M4.3,6.2C4.1,6.2,4,6.3,4,6.5v35c0,0.2,0.1,0.3,0.3,0.3h16c0.2,0,0.3-0.1,0.3-0.3v-35 C20.6,6.3,20.5,6.2,20.3,6.2H4.3z"/>
  <path fill="#ffffff" d="M15,31h-2l-2-10l-2,10H7l-3-14h2.5l2,10.5l2.2-10.5h1.6l2.2,10.5L16.5,17H19L15,31z"/>
  <path fill="#2B579A" opacity="0.1" d="M20.6,8.2v31.6l23-4.2V12.4L20.6,8.2z"/>
  <path fill="#1E3C6B" d="M43.7,12L20.6,8v32l23.1-4c0.2,0,0.3-0.1,0.3-0.3V12.3C44,12.1,43.9,12,43.7,12z"/>
</svg>
